<svg xmlns="http://www.w3.org/2000/svg" viewBox="0 0 800 800" width="800" height="800">
  <defs>
    <pattern id="groovyTile" width="800" height="800" patternUnits="userSpaceOnUse">
      <rect width="800" height="800" fill="#f4ecd8"/>
      <!-- sunburst left -->
      <g transform="translate(120 380)">
        <circle r="48" fill="#e8b84a" stroke="#3d2b1f" stroke-width="3"/>
        <circle r="28" fill="#f2d06b" stroke="#3d2b1f" stroke-width="2"/>
        <g stroke="#3d2b1f" stroke-width="2" fill="none">
          <path d="M0-200 L0-70 M52-192 L18-68 M99-173 L35-64 M141-141 L50-50 M173-99 L64-35 M192-52 L68-18 M200 0 L70 0 M192 52 L68 18 M173 99 L64 35 M141 141 L50 50 M99 173 L35 64 M52 192 L18 68 M0 200 L0 70 M-52 192 L-18 68 M-99 173 L-35 64 M-141 141 L-50 50 M-173 99 L-64 35 M-192 52 L-68 18 M-200 0 L-70 0 M-192-52 L-68-18 M-173-99 L-64-35 M-141-141 L-50-50 M-99-173 L-35-64 M-52-192 L-18-68"/>
        </g>
        <g fill="#e07a5f" stroke="#3d2b1f" stroke-width="2">
          <path d="M0-200 L14-70 L0-60 L-14-70 Z"/>
          <path d="M141-141 L50-50 L58-40 L48-48 Z"/>
          <path d="M200 0 L70 0 L60 14 L70-14 Z"/>
          <path d="M141 141 L50 50 L48 48 L58 40 Z"/>
          <path d="M0 200 L14 70 L0 60 L-14 70 Z"/>
          <path d="M-141 141 L-50 50 L-48 48 L-58 40 Z"/>
          <path d="M-200 0 L-70 0 L-60-14 L-70 14 Z"/>
          <path d="M-141-141 L-50-50 L-48-48 L-58-40 Z"/>
        </g>
        <g fill="#c4d4a0" stroke="#3d2b1f" stroke-width="2">
          <path d="M52-192 L18-68 L28-62 Z"/>
          <path d="M192-52 L68-18 L62-28 Z"/>
          <path d="M192 52 L68 18 L62 28 Z"/>
          <path d="M52 192 L18 68 L28 62 Z"/>
          <path d="M-52 192 L-18 68 L-28 62 Z"/>
          <path d="M-192 52 L-68 18 L-62 28 Z"/>
          <path d="M-192-52 L-68-18 L-62-28 Z"/>
          <path d="M-52-192 L-18-68 L-28-62 Z"/>
        </g>
      </g>
      <!-- big flower -->
      <g transform="translate(220 160)">
        <circle r="22" fill="#f2d06b" stroke="#3d2b1f" stroke-width="2.5"/>
        <circle r="12" fill="#e8b84a" stroke="#3d2b1f" stroke-width="2"/>
        <g fill="#7a9b6e" stroke="#3d2b1f" stroke-width="2.5">
          <ellipse cx="0" cy="-52" rx="28" ry="44" transform="rotate(0)"/>
          <ellipse cx="0" cy="-52" rx="28" ry="44" transform="rotate(45)"/>
          <ellipse cx="0" cy="-52" rx="28" ry="44" transform="rotate(90)"/>
          <ellipse cx="0" cy="-52" rx="28" ry="44" transform="rotate(135)"/>
          <ellipse cx="0" cy="-52" rx="28" ry="44" transform="rotate(180)"/>
          <ellipse cx="0" cy="-52" rx="28" ry="44" transform="rotate(225)"/>
          <ellipse cx="0" cy="-52" rx="28" ry="44" transform="rotate(270)"/>
          <ellipse cx="0" cy="-52" rx="28" ry="44" transform="rotate(315)"/>
        </g>
      </g>
      <!-- paisley / teardrops -->
      <path fill="#e8a0a0" stroke="#3d2b1f" stroke-width="2" d="M520 120c40 0 72 48 72 108s-32 108-72 108c-24 0-44-16-56-40 28-8 48-36 48-68s-20-60-48-68c12-24 32-40 56-40z"/>
      <path fill="#c4d4a0" stroke="#3d2b1f" stroke-width="2" d="M640 520c-36 0-64-44-64-98s28-98 64-98c22 0 40 14 50 36-25 8-42 32-42 62s17 54 42 62c-10 22-28 36-50 36z"/>
      <!-- heart -->
      <path fill="#e07a8f" stroke="#3d2b1f" stroke-width="2.5" d="M620 200c-28-32-72-10-72 28 0 48 72 92 72 92s72-44 72-92c0-38-44-60-72-28z"/>
      <!-- clouds -->
      <g fill="#fff" stroke="#3d2b1f" stroke-width="2">
        <path d="M480 360c-18 0-33 12-38 28-22 2-38 20-38 42 0 24 20 44 44 44h118c26 0 48-20 48-46 0-22-16-40-36-42-6-34-36-60-72-60-28 0-52 16-64 38-10-2-18-4-26-4z"/>
        <path d="M120 620c-14 0-26 10-30 22-18 2-32 16-32 34 0 20 16 36 36 36h96c22 0 40-16 40-38 0-18-14-32-30-34-4-26-28-46-56-46-22 0-40 12-48 30-8-2-14-4-20-4z"/>
      </g>
      <!-- wavy bands -->
      <path fill="none" stroke="#7a9b6e" stroke-width="14" stroke-linecap="round" d="M-20 480 Q200 420 400 460 T820 440"/>
      <path fill="none" stroke="#e8b84a" stroke-width="12" stroke-linecap="round" d="M0 560 Q220 520 440 580 T800 540"/>
      <path fill="none" stroke="#e07a5f" stroke-width="10" stroke-linecap="round" d="M40 320 Q260 280 500 340 T780 300"/>
      <!-- small flowers -->
      <g transform="translate(360 520)">
        <circle r="10" fill="#f2d06b" stroke="#3d2b1f" stroke-width="2"/>
        <g fill="#fff" stroke="#3d2b1f" stroke-width="1.8">
          <circle cy="-22" r="9"/>
          <circle cx="19" cy="-11" r="9"/>
          <circle cx="19" cy="11" r="9"/>
          <circle cy="22" r="9"/>
          <circle cx="-19" cy="11" r="9"/>
          <circle cx="-19" cy="-11" r="9"/>
        </g>
      </g>
      <g transform="translate(680 120)">
        <circle r="8" fill="#e8b84a" stroke="#3d2b1f" stroke-width="2"/>
        <g fill="#c4d4a0" stroke="#3d2b1f" stroke-width="1.6">
          <ellipse cx="0" cy="-18" rx="10" ry="16"/>
          <ellipse cx="0" cy="-18" rx="10" ry="16" transform="rotate(60)"/>
          <ellipse cx="0" cy="-18" rx="10" ry="16" transform="rotate(120)"/>
        </g>
      </g>
      <!-- dots -->
      <g fill="#3d2b1f">
        <circle cx="100" cy="240" r="5"/>
        <circle cx="740" cy="360" r="4"/>
        <circle cx="560" cy="700" r="6"/>
        <circle cx="320" cy="720" r="4"/>
        <circle cx="180" cy="480" r="3"/>
      </g>
    </pattern>
  </defs>
  <rect width="100%" height="100%" fill="url(#groovyTile)"/>
</svg>
